<svg id="Слой_1" data-name="Слой 1" xmlns="http://www.w3.org/2000/svg" xmlns:xlink="http://www.w3.org/1999/xlink" viewBox="0 0 256 256"><defs><style>.cls-1{fill:none;}.cls-2{isolation:isolate;}.cls-3{clip-path:url(#clip-path);}.cls-4{fill:#858100;}.cls-5{fill:#b0ab00;}.cls-6{fill:#dbd500;}.cls-7{fill:#827f00;}.cls-8{fill:#c5c000;}.cls-9{fill:#848484;}.cls-10{fill:#dbdbdb;}.cls-11{fill:#c5c5c5;}.cls-12{fill:#723a88;}.cls-13{fill:#b75ddb;}.cls-14{fill:#a554c5;}.cls-15{fill:#458c8d;}.cls-16{fill:#6bdadb;}.cls-17{fill:#60c4c5;}.cls-18{clip-path:url(#clip-path-2);}.cls-19{fill:#938f00;}.cls-20{fill:#8e5511;}.cls-21{fill:#bf7217;}.cls-22{fill:#d57e1a;}.cls-23{fill:#7e4b0f;}.cls-24{clip-path:url(#clip-path-3);}.cls-25{fill:#c67618;}.cls-26{fill:#c17317;}.cls-27{fill:#bc7017;}.cls-28{fill:#b76d16;}.cls-29{fill:#b26a16;}.cls-30{fill:#ad6715;}.cls-31{fill:#a86414;}.cls-32{fill:#a36114;}.cls-33{fill:#9e5e13;}.cls-34{fill:#995b13;}.cls-35{clip-path:url(#clip-path-4);}.cls-36{fill:#804c10;}.cls-37{fill:#854f10;}.cls-38{fill:#8a5211;}.cls-39{fill:#8f5511;}.cls-40{fill:#945812;}.cls-41{clip-path:url(#clip-path-5);}</style><clipPath id="clip-path"><path class="cls-1" d="M53.85,244.18l-3.53-2.05c-3.78-2.2-5.31-8-5.43-8.43l3.53,2.05C48.53,236.2,50.06,242,53.85,244.18Z"/></clipPath><clipPath id="clip-path-2"><path class="cls-1" d="M54.57,245.24,51,243.19c-3.07-1.78-2.91-7.79-2.9-8.24L51.66,237C51.65,237.44,51.5,243.45,54.57,245.24Z"/></clipPath><clipPath id="clip-path-3"><path class="cls-1" d="M153.69,103.82l2.12,1.22a1.46,1.46,0,0,0-1.41.22L152.29,104A1.41,1.41,0,0,1,153.69,103.82Z"/></clipPath><clipPath id="clip-path-4"><path class="cls-1" d="M152.17,111.21,150.05,110c-.41-.24-.59-.85-.47-1.74a6.26,6.26,0,0,1,2.71-4.21l2.11,1.23a6.19,6.19,0,0,0-2.7,4.21C151.57,110.35,151.76,111,152.17,111.21Z"/></clipPath><clipPath id="clip-path-5"><path class="cls-1" d="M136.76,125.14l-2.12-1.23c-.3-2-.43-3.8-.57-5.6l2.12,1.23C136.32,121.34,136.45,123.19,136.76,125.14Z"/></clipPath></defs><title>Projects_lt</title><g class="cls-2"><g class="cls-2"><g class="cls-3"><g class="cls-2"><path class="cls-4" d="M53.85,244.18l-3.53-2.05c-3.78-2.2-5.31-8-5.43-8.43l3.53,2.05c.11.45,1.64,6.23,5.43,8.43"/></g></g></g><polygon class="cls-5" points="147.96 48.8 144.44 46.75 154.02 24.76 157.55 26.81 147.96 48.8"/><polygon class="cls-6" points="157.55 26.81 154.02 24.76 185.98 6.31 189.5 8.36 157.55 26.81"/><polygon class="cls-6" points="112.89 69.05 109.37 67 144.44 46.75 147.96 48.8 112.89 69.05"/><polygon class="cls-6" points="110.55 70.4 107.03 68.35 109.37 67 112.89 69.05 110.55 70.4"/><polygon class="cls-6" points="31.83 115.85 28.31 113.8 107.03 68.35 110.55 70.4 31.83 115.85"/><polygon class="cls-7" points="48.42 235.75 44.89 233.7 28.31 113.8 31.83 115.85 48.42 235.75"/><path class="cls-8" d="M189.5,8.36l2.11,15.24,2.49,18,14.09,101.89c0,.75.41,15.13-8.94,20.53l-67.81,39.14-2.33,1.35L61.29,243.68c-9.35,5.4-12.7-7.26-12.87-7.93L31.83,115.85,110.55,70.4l2.34-1.35L148,48.8l9.59-22Z"/></g><g class="cls-2"><polygon class="cls-9" points="53.23 205.31 51.81 204.49 44.31 113.69 45.72 114.51 53.23 205.31"/><polygon class="cls-10" points="45.72 114.51 44.31 113.69 201.57 22.9 202.98 23.72 45.72 114.51"/><polygon class="cls-11" points="202.98 23.72 210.48 114.52 53.23 205.31 45.72 114.51 202.98 23.72"/></g><g class="cls-2"><polygon class="cls-12" points="54.46 207.4 53.05 206.58 52.78 111.61 54.19 112.43 54.46 207.4"/><polygon class="cls-13" points="54.19 112.43 52.78 111.61 210.04 20.82 211.45 21.64 54.19 112.43"/><polygon class="cls-14" points="211.45 21.64 211.72 116.61 54.46 207.4 54.19 112.43 211.45 21.64"/></g><g class="cls-2"><polygon class="cls-15" points="55.7 209.49 54.29 208.67 61.25 109.52 62.66 110.34 55.7 209.49"/><polygon class="cls-16" points="62.66 110.34 61.25 109.52 218.51 18.73 219.92 19.55 62.66 110.34"/><polygon class="cls-17" points="219.92 19.55 212.96 118.69 55.7 209.49 62.66 110.34 219.92 19.55"/></g><g class="cls-2"><polygon class="cls-6" points="148.64 75.16 145.12 73.11 223.83 27.67 227.36 29.71 148.64 75.16"/><polygon class="cls-6" points="146.31 76.51 142.78 74.46 145.12 73.11 148.64 75.16 146.31 76.51"/><g class="cls-2"><g class="cls-18"><g class="cls-2"><path class="cls-4" d="M54.57,245.24,51,243.19c-3.07-1.78-2.91-7.79-2.9-8.24L51.66,237c0,.44-.16,6.45,2.91,8.24"/></g></g></g><polygon class="cls-6" points="111.23 96.76 107.7 94.72 142.78 74.46 146.31 76.51 111.23 96.76"/><polygon class="cls-19" points="51.66 237 48.14 234.95 61.66 137.2 65.19 139.25 51.66 237"/><polygon class="cls-19" points="65.19 139.25 61.66 137.2 64.06 119.91 67.58 121.96 65.19 139.25"/><polygon class="cls-19" points="67.58 121.96 64.06 119.91 66.08 105.28 69.61 107.33 67.58 121.96"/><path class="cls-8" d="M148.64,75.16l78.72-45.44-15.92,115c-.17.73-3.44,14.55-12.8,19.95l-67.81,39.15-2.34,1.35-67.8,39.15c-9.35,5.4-9-6.71-9-7.35l13.53-97.75L67.58,122l2-14.63,32-18.45,9.67,7.88L146.3,76.51Z"/><polygon class="cls-6" points="69.61 107.33 66.08 105.28 98.04 86.83 101.56 88.88 69.61 107.33"/></g><g class="cls-2"><polygon class="cls-20" points="161.93 151.48 159.81 150.25 169.49 80.3 171.61 81.53 161.93 151.48"/><polygon class="cls-21" points="147.66 141.71 151.17 116.34 154.86 114.21 151.35 139.58 147.66 141.71"/><polygon class="cls-20" points="147.66 141.71 145.54 140.49 149.06 115.11 151.17 116.34 147.66 141.71"/><polygon class="cls-22" points="151.17 116.34 149.06 115.11 152.74 112.98 154.86 114.21 151.17 116.34"/><polygon class="cls-23" points="139.86 146.22 137.75 144.99 136.27 135.61 138.38 136.84 139.86 146.22"/><g class="cls-2"><g class="cls-24"><g class="cls-2"><path class="cls-25" d="M154.4,105.26,152.29,104a3,3,0,0,1,.36-.18l2.11,1.23-.36.18"/><path class="cls-26" d="M154.76,105.08l-2.11-1.23.25-.09L155,105l-.26.09"/><path class="cls-27" d="M155,105l-2.12-1.23.18,0,2.11,1.23-.17,0"/><path class="cls-28" d="M155.19,105l-2.11-1.23h.14l2.11,1.23h-.14"/><path class="cls-29" d="M155.33,104.94l-2.11-1.23h.11l2.12,1.23h-.12"/><path class="cls-30" d="M155.45,104.94l-2.12-1.23h.1l2.11,1.23h-.09"/><path class="cls-31" d="M155.54,105l-2.11-1.23.09,0,2.12,1.23-.1,0"/><path class="cls-32" d="M155.64,105l-2.12-1.23.09,0,2.11,1.23-.08,0"/><path class="cls-33" d="M155.72,105l-2.11-1.23.07,0L155.8,105l-.08,0"/><polyline class="cls-34" points="155.8 105.04 153.68 103.81 153.69 103.82 155.81 105.05 155.8 105.04"/></g></g></g><g class="cls-2"><g class="cls-35"><g class="cls-2"><path class="cls-36" d="M152.17,111.21,150.05,110c-.4-.24-.58-.84-.47-1.69l2.11,1.22c-.11.86.07,1.46.48,1.7"/><path class="cls-37" d="M151.69,109.51l-2.11-1.22v-.05l.06-.34,2.12,1.23a2,2,0,0,0-.06.34v0"/><path class="cls-38" d="M151.76,109.13l-2.12-1.23c0-.11.05-.22.08-.32l2.12,1.23a3,3,0,0,0-.08.32"/><path class="cls-39" d="M151.84,108.81l-2.12-1.23.09-.29,2.11,1.23a2.45,2.45,0,0,0-.08.29"/><path class="cls-40" d="M151.92,108.52l-2.11-1.23c0-.09.06-.18.1-.27l2.11,1.23-.1.27"/><path class="cls-34" d="M152,108.25,149.91,107l.1-.25,2.11,1.23-.1.25"/><path class="cls-33" d="M152.12,108,150,106.77a2.56,2.56,0,0,1,.11-.24l2.11,1.23a2.56,2.56,0,0,1-.11.24"/><path class="cls-32" d="M152.23,107.76l-2.11-1.23.12-.24,2.12,1.23c-.05.08-.09.16-.13.24"/><path class="cls-31" d="M152.36,107.52l-2.12-1.23.13-.24,2.12,1.23c-.05.08-.09.16-.13.24"/><path class="cls-30" d="M152.49,107.28l-2.12-1.23.15-.24,2.11,1.23-.14.24"/><path class="cls-29" d="M152.63,107l-2.11-1.23.16-.24,2.12,1.23-.17.24"/><path class="cls-28" d="M152.8,106.8l-2.12-1.23c.06-.09.13-.17.19-.25l2.11,1.22-.18.26"/><path class="cls-27" d="M153,106.54l-2.11-1.22c.07-.1.15-.19.22-.28l2.12,1.23-.23.27"/><path class="cls-26" d="M153.21,106.27,151.09,105l.3-.32,2.12,1.23a3,3,0,0,0-.3.32"/><path class="cls-25" d="M153.51,106l-2.12-1.23a4.8,4.8,0,0,1,.9-.69l2.11,1.23a4.74,4.74,0,0,0-.89.69"/></g></g></g><path class="cls-21" d="M154.4,105.26c1.38-.8,2.09-.05,1.86,1.58a5.93,5.93,0,0,1-2.74,4.18c-1.29.75-2,0-1.82-1.55A6.19,6.19,0,0,1,154.4,105.26Z"/><polygon class="cls-22" points="106.15 183.68 104.04 182.45 159.81 150.25 161.93 151.48 106.15 183.68"/><polygon class="cls-22" points="129.61 138.62 127.5 137.4 136 132.49 138.12 133.71 129.61 138.62"/><polygon class="cls-23" points="138.12 133.71 136 132.49 134.64 123.91 136.76 125.14 138.12 133.71"/><g class="cls-2"><g class="cls-41"><g class="cls-2"><path class="cls-36" d="M136.76,125.14l-2.12-1.23c-.3-2-.43-3.8-.57-5.6l2.12,1.23c.13,1.8.26,3.65.57,5.6"/></g></g></g><polygon class="cls-32" points="120.12 157.61 118.01 156.38 132.49 115.5 134.6 116.73 120.12 157.61"/><path class="cls-21" d="M139,114.19,143.76,144l-3.9,2.24-1.48-9.37-10,5.78-4.48,12.81-3.77,2.18,14.48-40.88Zm-9.4,24.43,8.51-4.91-1.36-8.57c-.31-2-.44-3.8-.57-5.6l-.09,0c-.71,2.33-1.47,4.75-2.31,7.22l-4.18,11.81"/><polygon class="cls-22" points="134.6 116.73 132.49 115.5 136.9 112.96 139.01 114.19 134.6 116.73"/><polygon class="cls-22" points="108.06 107.6 105.95 106.37 180.45 63.36 182.57 64.59 108.06 107.6"/><path class="cls-21" d="M108.06,107.6l74.51-43-12.88,93-74.5,43Zm53.87,43.88,9.68-69.95-55.78,32.2-9.68,70,55.78-32.2"/><polygon class="cls-20" points="95.19 200.63 93.08 199.4 105.95 106.37 108.06 107.6 95.19 200.63"/></g></svg>